<?xml version="1.0" encoding="UTF-8"?>
<svg width="129px" height="36px" viewBox="0 0 129 36" version="1.1" xmlns="http://www.w3.org/2000/svg">
    <g id="Symbols" stroke="none" stroke-width="1" fill="none" fill-rule="evenodd">
        <g id="logo/all-white" fill="#FFFFFF" fill-rule="nonzero">
            <g id="logo">
                <path d="M18.6875,28 L16.746875,22.1737374 L6.368125,22.1737374 L4.3125,28 L0,28 L11.399375,0 L12.42,0 L23,28 L18.6875,28 Z M11.73,7.24040404 L7.4175,19.4020202 L15.755,19.4020202 L11.73,7.24040404 Z" id="Shape"></path>
                <path d="M29.8580731,27.1112092 L29.8580731,36 L26,36 L26,8.38919351 L29.8580731,8.38919351 L29.8580731,10.0141756 C31.2478053,8.70861158 33.1685546,7.98473136 35.1648298,8.01419765 C37.8854825,7.86947685 40.5353538,8.83689188 42.3929984,10.6530574 C44.2639203,12.8408864 45.1816875,15.5809987 44.9701302,18.347417 C45.1006333,21.0110545 44.1751131,23.6286172 42.3624998,25.7223356 C40.4867877,27.6957266 37.7042377,28.754678 34.8445945,28.5834152 C33.8392034,28.5751627 32.8412709,28.4252418 31.8862301,28.1389756 C31.1107244,27.9932559 30.4028859,27.6345594 29.8580731,27.1112092 M29.8580731,12.6530354 L29.8580731,24.2084634 C30.260089,24.6462793 30.788171,24.973336 31.3830032,25.1528974 C32.1028602,25.4470079 32.8814803,25.603021 33.6703983,25.6112257 C38.4790112,25.6112257 40.8782345,23.1436604 40.8680683,18.2085296 C41.0713356,16.2281624 40.4629813,14.2493195 39.1601466,12.6530354 C37.7044766,11.3783743 35.7113254,10.7445338 33.7008969,10.9169434 C33.0016818,10.9526874 32.3196687,11.1281304 31.7032385,11.4308266 C31.0099123,11.7200399 30.3756464,12.1145502 29.8275745,12.5974804" id="Shape"></path>
                <path d="M48.3340588,10.7375128 L46,10.7375128 L46,7.82500853 L48.3340588,7.82500853 L48.3340588,3.45625213 L51.9129489,2 L51.9129489,7.82500853 L57.4581066,7.82500853 L57.4581066,10.7375128 L51.9553863,10.7375128 L51.9553863,21.0623404 C51.8476447,22.3680841 52.1501306,23.6749288 52.8182807,24.7903459 C53.5326998,25.6074809 54.5861803,26.0195963 55.6474429,25.8970975 C56.6300778,25.87697 57.5962178,25.6332928 58.476605,25.1835339 L59,28.4164137 C57.4034451,28.8207734 55.7637694,29.016481 54.1196953,28.9989145 C52.5760131,29.0224944 51.0989414,28.3525869 50.0739935,27.1640368 C48.9559788,25.9021756 48.3619462,24.2400636 48.4189336,22.5331551 L48.3340588,10.7375128 Z" id="Path"></path>
                <path d="M73.2386017,26.2870971 C71.6219808,28.1754304 69.2200244,29.1728386 66.7647706,28.9753441 C65.2386243,28.9884592 63.7740604,28.3644624 62.7134053,27.2492066 C61.5915603,26.1345173 60.9719965,24.5988066 61.0009726,23.004606 C61.0045964,20.9408786 61.9900933,19.0063512 63.6461939,17.8120447 C65.5852042,16.3379213 67.9650749,15.5883612 70.3845471,15.6897444 C71.2447564,15.7089561 72.0960365,15.871466 72.9044684,16.1707991 C72.9044684,12.8977404 71.4704801,11.2659273 68.6025033,11.2753598 C66.7421342,11.1355448 64.9063523,11.7744632 63.5208939,13.0439434 L62.0312167,10.0444256 C62.8690808,9.40810316 63.8120312,8.9289592 64.8156602,8.62955876 C65.9047431,8.24853223 67.0470127,8.04789165 68.198759,8.03531468 C70.4693,7.82720171 72.7281198,8.5448825 74.477679,10.0302769 C75.9343862,11.8054653 76.6401734,14.0946158 76.4407117,16.3971778 L76.4407117,23.6412961 C76.2575656,25.0255764 76.8616248,26.3958543 78,27.1784632 L78,28.9753441 C76.8893979,29.0402574 75.78014,28.826459 74.7700456,28.3528027 C74.0259063,27.8867122 73.4797752,27.1551027 73.2386017,26.3012458 M72.9044684,18.6892621 C72.1415573,18.4977004 71.3635645,18.3746057 70.5794581,18.3213967 C69.0047568,18.262427 67.4590165,18.7627081 66.2078819,19.7362636 C65.1640349,20.5081407 64.5396683,21.7352333 64.5232936,23.047052 C64.5232936,25.141055 65.7345265,26.1880564 68.1848368,26.1880564 C70.0686737,26.1305843 71.8164848,25.1769687 72.9044684,23.6129988 L72.9044684,18.6892621 Z" id="Shape"></path>
                <path d="M92.5243619,11.9696446 C91.8497978,11.4534242 91.0377668,11.1660825 90.199536,11.1469919 C88.902248,11.1796639 87.6933172,11.8356678 86.9280742,12.9221899 C85.987218,14.1507363 85.4942868,15.6838531 85.5359629,17.2519413 L85.5359629,29 L82,29 L82,8.3903835 L85.5220418,8.3903835 L85.5220418,11.6809945 C86.5593793,9.40260964 88.7858672,7.96346339 91.2157773,8.00070588 C92.1518267,8.03166242 93.0834615,8.14756542 94,8.34708599 L92.5243619,11.9696446 Z" id="Path"></path>
                <path d="M113.723717,20.8187482 C112.774344,20.8187482 112.745575,20.5980061 113.723717,20.3496713 L127.388942,16.6522422 C128.325684,16.3310652 128.963873,15.4948946 129,14.5413964 L129,2.89725382 C129,1.98669291 128.410238,1.72456174 127.676631,2.31780597 L96.4479966,27.9238826 C95.7143898,28.5171268 95.9013877,29 96.8651456,29 L127.273866,29 C127.731665,29 128.170714,28.8255749 128.494427,28.5150962 C128.81814,28.2046174 129,27.7835179 129,27.3444347 L129,22.6536664 C128.962323,21.7593056 128.206851,21.0467955 127.273866,21.0256938 L113.723717,20.8187482 Z" id="Path"></path>
            </g>
        </g>
    </g>
</svg>
